<svg width="105" height="80" viewBox="0 0 105 80" fill="none" xmlns="http://www.w3.org/2000/svg">
<path d="M6.5625 55C6.5625 53.6739 7.2539 52.4021 8.48461 51.4645C9.71532 50.5268 11.3845 50 13.125 50H26.25C27.9905 50 29.6597 50.5268 30.8904 51.4645C32.1211 52.4021 32.8125 53.6739 32.8125 55V70C32.8125 71.3261 32.1211 72.5979 30.8904 73.5355C29.6597 74.4732 27.9905 75 26.25 75H13.125C11.3845 75 9.71532 74.4732 8.48461 73.5355C7.2539 72.5979 6.5625 71.3261 6.5625 70V55ZM39.375 35C39.375 33.6739 40.0664 32.4021 41.2971 31.4645C42.5278 30.5268 44.197 30 45.9375 30H59.0625C60.803 30 62.4722 30.5268 63.7029 31.4645C64.9336 32.4021 65.625 33.6739 65.625 35V70C65.625 71.3261 64.9336 72.5979 63.7029 73.5355C62.4722 74.4732 60.803 75 59.0625 75H45.9375C44.197 75 42.5278 74.4732 41.2971 73.5355C40.0664 72.5979 39.375 71.3261 39.375 70V35ZM72.1875 10C72.1875 8.67392 72.8789 7.40215 74.1096 6.46447C75.3403 5.52678 77.0095 5 78.75 5H91.875C93.6155 5 95.2847 5.52678 96.5154 6.46447C97.7461 7.40215 98.4375 8.67392 98.4375 10V70C98.4375 71.3261 97.7461 72.5979 96.5154 73.5355C95.2847 74.4732 93.6155 75 91.875 75H78.75C77.0095 75 75.3403 74.4732 74.1096 73.5355C72.8789 72.5979 72.1875 71.3261 72.1875 70V10Z" fill="#A74C4C"/>
</svg>
