<svg width="30" height="30" viewBox="0 0 30 30" fill="none" xmlns="http://www.w3.org/2000/svg">
<path fill-rule="evenodd" clip-rule="evenodd" d="M15 22.5C15.2486 22.5 15.4871 22.4012 15.6629 22.2254C15.8387 22.0496 15.9375 21.8111 15.9375 21.5625V10.7006L19.9612 14.7262C20.0484 14.8134 20.1519 14.8825 20.2657 14.9297C20.3796 14.9769 20.5017 15.0011 20.625 15.0011C20.7482 15.0011 20.8703 14.9769 20.9842 14.9297C21.0981 14.8825 21.2015 14.8134 21.2887 14.7262C21.3759 14.6391 21.445 14.5356 21.4922 14.4217C21.5394 14.3078 21.5636 14.1857 21.5636 14.0625C21.5636 13.9392 21.5394 13.8171 21.4922 13.7032C21.445 13.5894 21.3759 13.4859 21.2887 13.3987L15.6637 7.77372C15.5766 7.68641 15.4732 7.61714 15.3593 7.56988C15.2454 7.52262 15.1233 7.49829 15 7.49829C14.8766 7.49829 14.7545 7.52262 14.6406 7.56988C14.5268 7.61714 14.4233 7.68641 14.3362 7.77372L8.71121 13.3987C8.53518 13.5748 8.43628 13.8135 8.43628 14.0625C8.43628 14.3114 8.53518 14.5502 8.71121 14.7262C8.88725 14.9023 9.12601 15.0011 9.37496 15.0011C9.62392 15.0011 9.86268 14.9023 10.0387 14.7262L14.0625 10.7006V21.5625C14.0625 21.8111 14.1612 22.0496 14.3371 22.2254C14.5129 22.4012 14.7513 22.5 15 22.5Z" fill="#E5E5E5"/>
</svg>
