<svg width="30" height="30" viewBox="0 0 30 30" fill="none" xmlns="http://www.w3.org/2000/svg">
<g clip-path="url(#clip0_776_498)">
<path d="M22.0162 19.3949C23.8318 16.9175 24.6449 13.8459 24.293 10.7946C23.9411 7.74334 22.4501 4.93745 20.1183 2.93831C17.7864 0.939171 14.7858 -0.105799 11.7165 0.0124631C8.64733 0.130725 5.73595 1.4035 3.56485 3.57615C1.39376 5.74879 0.123069 8.66109 0.00700326 11.7304C-0.109063 14.7997 0.938054 17.7996 2.93886 20.13C4.93967 22.4604 7.74662 23.9495 10.7981 24.2992C13.8496 24.6489 16.9207 23.8335 19.3968 22.0162H19.395C19.4512 22.0912 19.5112 22.1624 19.5787 22.2318L26.7975 29.4506C27.149 29.8024 27.626 30.0001 28.1234 30.0003C28.6208 30.0005 29.0978 29.8031 29.4497 29.4515C29.8015 29.0999 29.9992 28.623 29.9994 28.1256C29.9996 27.6282 29.8022 27.1511 29.4506 26.7993L22.2318 19.5806C22.1648 19.5127 22.0927 19.4519 22.0162 19.3949ZM22.5 12.1874C22.5 13.5417 22.2332 14.8827 21.715 16.1339C21.1967 17.385 20.4371 18.5219 19.4795 19.4795C18.5219 20.4371 17.3851 21.1967 16.1339 21.715C14.8827 22.2332 13.5417 22.4999 12.1875 22.4999C10.8332 22.4999 9.49222 22.2332 8.24105 21.715C6.98988 21.1967 5.85304 20.4371 4.89544 19.4795C3.93783 18.5219 3.17822 17.385 2.65997 16.1339C2.14172 14.8827 1.87497 13.5417 1.87497 12.1874C1.87497 9.4524 2.96147 6.82938 4.89544 4.89541C6.8294 2.96144 9.45243 1.87494 12.1875 1.87494C14.9225 1.87494 17.5455 2.96144 19.4795 4.89541C21.4135 6.82938 22.5 9.4524 22.5 12.1874Z" fill="#E5E5E5"/>
</g>
<defs>
<clipPath id="clip0_776_498">
<rect width="30" height="30" fill="white"/>
</clipPath>
</defs>
</svg>
