<svg width="194" height="100" viewBox="0 0 194 100" fill="none" xmlns="http://www.w3.org/2000/svg">
<path d="M6.25 68.75C6.25 67.0924 6.90848 65.5027 8.08058 64.3306C9.25268 63.1585 10.8424 62.5 12.5 62.5H25C26.6576 62.5 28.2473 63.1585 29.4194 64.3306C30.5915 65.5027 31.25 67.0924 31.25 68.75V87.5C31.25 89.1576 30.5915 90.7473 29.4194 91.9194C28.2473 93.0915 26.6576 93.75 25 93.75H12.5C10.8424 93.75 9.25268 93.0915 8.08058 91.9194C6.90848 90.7473 6.25 89.1576 6.25 87.5V68.75ZM37.5 43.75C37.5 42.0924 38.1585 40.5027 39.3306 39.3306C40.5027 38.1585 42.0924 37.5 43.75 37.5H56.25C57.9076 37.5 59.4973 38.1585 60.6694 39.3306C61.8415 40.5027 62.5 42.0924 62.5 43.75V87.5C62.5 89.1576 61.8415 90.7473 60.6694 91.9194C59.4973 93.0915 57.9076 93.75 56.25 93.75H43.75C42.0924 93.75 40.5027 93.0915 39.3306 91.9194C38.1585 90.7473 37.5 89.1576 37.5 87.5V43.75ZM68.75 12.5C68.75 10.8424 69.4085 9.25268 70.5806 8.08058C71.7527 6.90848 73.3424 6.25 75 6.25H87.5C89.1576 6.25 90.7473 6.90848 91.9194 8.08058C93.0915 9.25268 93.75 10.8424 93.75 12.5V87.5C93.75 89.1576 93.0915 90.7473 91.9194 91.9194C90.7473 93.0915 89.1576 93.75 87.5 93.75H75C73.3424 93.75 71.7527 93.0915 70.5806 91.9194C69.4085 90.7473 68.75 89.1576 68.75 87.5V12.5Z" fill="#7F53DF"/>
<path d="M100.25 68.75C100.25 67.0924 100.908 65.5027 102.081 64.3306C103.253 63.1585 104.842 62.5 106.5 62.5H119C120.658 62.5 122.247 63.1585 123.419 64.3306C124.592 65.5027 125.25 67.0924 125.25 68.75V87.5C125.25 89.1576 124.592 90.7473 123.419 91.9194C122.247 93.0915 120.658 93.75 119 93.75H106.5C104.842 93.75 103.253 93.0915 102.081 91.9194C100.908 90.7473 100.25 89.1576 100.25 87.5V68.75ZM131.5 43.75C131.5 42.0924 132.158 40.5027 133.331 39.3306C134.503 38.1585 136.092 37.5 137.75 37.5H150.25C151.908 37.5 153.497 38.1585 154.669 39.3306C155.842 40.5027 156.5 42.0924 156.5 43.75V87.5C156.5 89.1576 155.842 90.7473 154.669 91.9194C153.497 93.0915 151.908 93.75 150.25 93.75H137.75C136.092 93.75 134.503 93.0915 133.331 91.9194C132.158 90.7473 131.5 89.1576 131.5 87.5V43.75ZM162.75 12.5C162.75 10.8424 163.408 9.25268 164.581 8.08058C165.753 6.90848 167.342 6.25 169 6.25H181.5C183.158 6.25 184.747 6.90848 185.919 8.08058C187.092 9.25268 187.75 10.8424 187.75 12.5V87.5C187.75 89.1576 187.092 90.7473 185.919 91.9194C184.747 93.0915 183.158 93.75 181.5 93.75H169C167.342 93.75 165.753 93.0915 164.581 91.9194C163.408 90.7473 162.75 89.1576 162.75 87.5V12.5Z" fill="#7F53DF"/>
</svg>
