<svg xmlns="http://www.w3.org/2000/svg" xmlns:xlink="http://www.w3.org/1999/xlink" width="100" zoomAndPan="magnify" viewBox="0 0 75 37.5" height="50" preserveAspectRatio="xMidYMid meet" version="1.0"><defs><filter x="0%" y="0%" width="100%" height="100%" id="9002313def"><feColorMatrix values="0 0 0 0 1 0 0 0 0 1 0 0 0 0 1 0 0 0 1 0" color-interpolation-filters="sRGB"/></filter><g/><clipPath id="8b0b054520"><path d="M 0.492188 0 L 74.503906 0 L 74.503906 3.914062 L 0.492188 3.914062 Z M 0.492188 0 " clip-rule="nonzero"/></clipPath><mask id="b76a27f04e"><g filter="url(#9002313def)"><rect x="-7.5" width="90" fill="#000000" y="-3.75" height="45" fill-opacity="0.65"/></g></mask><clipPath id="1669dc5f41"><path d="M 0.804688 1.054688 L 7.816406 1.054688 L 7.816406 8.589844 L 0.804688 8.589844 Z M 0.804688 1.054688 " clip-rule="nonzero"/></clipPath><clipPath id="59bbffe243"><path d="M 4.3125 1.054688 C 2.375 1.054688 0.804688 2.742188 0.804688 4.820312 C 0.804688 6.898438 2.375 8.585938 4.3125 8.585938 C 6.246094 8.585938 7.816406 6.898438 7.816406 4.820312 C 7.816406 2.742188 6.246094 1.054688 4.3125 1.054688 Z M 4.3125 1.054688 " clip-rule="nonzero"/></clipPath><clipPath id="962eaa3222"><rect x="0" width="8" y="0" height="9"/></clipPath></defs><g clip-path="url(#8b0b054520)"><path fill="#d8d8d8" d="M 0.492188 0 L 74.507812 0 L 74.507812 3.914062 L 0.492188 3.914062 Z M 0.492188 0 " fill-opacity="1" fill-rule="nonzero"/></g><g fill="#000000" fill-opacity="1"><g transform="translate(16.139772, 2.836209)"><g><path d="M 0.859375 -1.796875 C 1.128906 -1.796875 1.363281 -1.734375 1.5625 -1.609375 L 1.390625 -1.25 C 1.296875 -1.300781 1.195312 -1.34375 1.09375 -1.375 C 0.988281 -1.414062 0.898438 -1.4375 0.828125 -1.4375 C 0.691406 -1.4375 0.625 -1.394531 0.625 -1.3125 C 0.625 -1.25 0.65625 -1.203125 0.71875 -1.171875 C 0.789062 -1.140625 0.867188 -1.109375 0.953125 -1.078125 C 1.046875 -1.054688 1.140625 -1.023438 1.234375 -0.984375 C 1.328125 -0.953125 1.40625 -0.894531 1.46875 -0.8125 C 1.539062 -0.738281 1.578125 -0.644531 1.578125 -0.53125 C 1.578125 -0.351562 1.507812 -0.21875 1.375 -0.125 C 1.238281 -0.03125 1.066406 0.015625 0.859375 0.015625 C 0.710938 0.015625 0.566406 -0.0078125 0.421875 -0.0625 C 0.273438 -0.113281 0.148438 -0.179688 0.046875 -0.265625 L 0.21875 -0.625 C 0.3125 -0.539062 0.414062 -0.472656 0.53125 -0.421875 C 0.65625 -0.367188 0.765625 -0.34375 0.859375 -0.34375 C 0.929688 -0.34375 0.988281 -0.359375 1.03125 -0.390625 C 1.070312 -0.421875 1.09375 -0.457031 1.09375 -0.5 C 1.09375 -0.550781 1.066406 -0.59375 1.015625 -0.625 C 0.972656 -0.664062 0.914062 -0.691406 0.84375 -0.703125 C 0.78125 -0.722656 0.707031 -0.742188 0.625 -0.765625 C 0.539062 -0.796875 0.460938 -0.828125 0.390625 -0.859375 C 0.328125 -0.890625 0.269531 -0.941406 0.21875 -1.015625 C 0.175781 -1.085938 0.15625 -1.171875 0.15625 -1.265625 C 0.15625 -1.429688 0.21875 -1.5625 0.34375 -1.65625 C 0.476562 -1.75 0.648438 -1.796875 0.859375 -1.796875 Z M 0.859375 -1.796875 "/></g></g></g><g fill="#000000" fill-opacity="1"><g transform="translate(26.599521, 2.836209)"><g><path d="M 0.890625 -1.386719 L 1.382812 -1.386719 L 1.382812 -1.734375 L 0.0117188 -1.734375 L 0.0117188 -1.386719 L 0.507812 -1.386719 L 0.507812 0 L 0.890625 0 Z M 0.890625 -1.386719 "/></g></g></g><g fill="#000000" fill-opacity="1"><g transform="translate(36.647412, 2.836209)"><g><path d="M 1.492188 -0.867188 C 1.492188 -0.601562 1.25 -0.355469 0.980469 -0.355469 C 0.714844 -0.355469 0.472656 -0.601562 0.472656 -0.867188 C 0.472656 -1.136719 0.714844 -1.378906 0.980469 -1.378906 C 1.25 -1.378906 1.492188 -1.136719 1.492188 -0.867188 Z M 1.578125 -0.214844 C 1.757812 -0.378906 1.871094 -0.613281 1.871094 -0.867188 C 1.871094 -1.34375 1.460938 -1.757812 0.980469 -1.757812 C 0.5 -1.757812 0.0898438 -1.34375 0.0898438 -0.867188 C 0.0898438 -0.386719 0.5 0.0273438 0.980469 0.0273438 C 1.050781 0.0273438 1.117188 0.0195312 1.183594 0 L 1.972656 0 L 1.972656 -0.304688 L 1.769531 -0.304688 Z M 1.578125 -0.214844 "/></g></g></g><g fill="#000000" fill-opacity="1"><g transform="translate(46.984671, 2.836209)"><g><path d="M 1.492188 -0.867188 C 1.492188 -0.601562 1.25 -0.355469 0.980469 -0.355469 C 0.714844 -0.355469 0.472656 -0.601562 0.472656 -0.867188 C 0.472656 -1.136719 0.714844 -1.378906 0.980469 -1.378906 C 1.25 -1.378906 1.492188 -1.136719 1.492188 -0.867188 Z M 1.578125 -0.214844 C 1.757812 -0.378906 1.871094 -0.613281 1.871094 -0.867188 C 1.871094 -1.34375 1.460938 -1.757812 0.980469 -1.757812 C 0.5 -1.757812 0.0898438 -1.34375 0.0898438 -0.867188 C 0.0898438 -0.386719 0.5 0.0273438 0.980469 0.0273438 C 1.050781 0.0273438 1.117188 0.0195312 1.183594 0 L 1.972656 0 L 1.972656 -0.304688 L 1.769531 -0.304688 Z M 1.578125 -0.214844 "/></g></g></g><g fill="#000000" fill-opacity="1"><g transform="translate(57.507198, 2.836209)"><g><path d="M 0.824219 -0.269531 C 0.636719 -0.269531 0.472656 -0.363281 0.464844 -0.570312 L 0.078125 -0.570312 C 0.078125 -0.148438 0.429688 0.0390625 0.808594 0.0390625 C 1.164062 0.0390625 1.527344 -0.109375 1.527344 -0.515625 C 1.527344 -1.175781 0.527344 -0.957031 0.527344 -1.265625 C 0.527344 -1.394531 0.675781 -1.445312 0.785156 -1.445312 C 0.976562 -1.445312 1.082031 -1.386719 1.101562 -1.207031 L 1.46875 -1.207031 C 1.457031 -1.601562 1.136719 -1.757812 0.78125 -1.757812 C 0.464844 -1.757812 0.132812 -1.589844 0.132812 -1.234375 C 0.132812 -0.59375 1.132812 -0.808594 1.132812 -0.472656 C 1.132812 -0.320312 0.945312 -0.269531 0.824219 -0.269531 Z M 0.824219 -0.269531 "/></g></g></g><g fill="#000000" fill-opacity="1"><g transform="translate(67.844458, 2.836209)"><g><path d="M 0.824219 -0.269531 C 0.636719 -0.269531 0.472656 -0.363281 0.464844 -0.570312 L 0.078125 -0.570312 C 0.078125 -0.148438 0.429688 0.0390625 0.808594 0.0390625 C 1.164062 0.0390625 1.527344 -0.109375 1.527344 -0.515625 C 1.527344 -1.175781 0.527344 -0.957031 0.527344 -1.265625 C 0.527344 -1.394531 0.675781 -1.445312 0.785156 -1.445312 C 0.976562 -1.445312 1.082031 -1.386719 1.101562 -1.207031 L 1.46875 -1.207031 C 1.457031 -1.601562 1.136719 -1.757812 0.78125 -1.757812 C 0.464844 -1.757812 0.132812 -1.589844 0.132812 -1.234375 C 0.132812 -0.59375 1.132812 -0.808594 1.132812 -0.472656 C 1.132812 -0.320312 0.945312 -0.269531 0.824219 -0.269531 Z M 0.824219 -0.269531 "/></g></g></g><g fill="#000000" fill-opacity="1"><g transform="translate(5.814757, 2.853365)"><g><path d="M 0.53125 -0.351562 L 0.53125 -1.378906 L 0.644531 -1.378906 C 0.941406 -1.378906 1.140625 -1.152344 1.140625 -0.867188 C 1.140625 -0.578125 0.9375 -0.351562 0.644531 -0.351562 Z M 0.152344 -1.734375 L 0.152344 0 L 0.667969 0 C 1.160156 0 1.527344 -0.378906 1.527344 -0.867188 C 1.527344 -1.355469 1.15625 -1.734375 0.667969 -1.734375 Z M 0.152344 -1.734375 "/></g></g></g><g mask="url(#b76a27f04e)"><g transform="matrix(1, 0, 0, 1, 54, 23)"><g clip-path="url(#962eaa3222)"><g clip-path="url(#1669dc5f41)"><g clip-path="url(#59bbffe243)"><path fill="#c580dd" d="M 0.804688 1.054688 L 7.816406 1.054688 L 7.816406 8.589844 L 0.804688 8.589844 Z M 0.804688 1.054688 " fill-opacity="1" fill-rule="nonzero"/></g></g></g></g></g><g fill="#3f4652" fill-opacity="1"><g transform="translate(26.81571, 9.956775)"><g><path d="M 0.671875 0 L 0.375 0 L 0.375 -1.484375 L 0.03125 -1.484375 L 0.03125 -1.734375 L 0.671875 -1.734375 Z M 0.671875 0 "/></g></g></g><g fill="#3f4652" fill-opacity="1"><g transform="translate(36.903408, 9.956775)"><g><path d="M 0.71875 -1.75 C 0.882812 -1.75 1.015625 -1.707031 1.109375 -1.625 C 1.210938 -1.550781 1.265625 -1.445312 1.265625 -1.3125 C 1.265625 -1.15625 1.160156 -0.96875 0.953125 -0.75 L 0.5 -0.265625 L 1.34375 -0.265625 L 1.34375 0 L 0.109375 0 L 0.109375 -0.21875 L 0.75 -0.90625 C 0.894531 -1.050781 0.96875 -1.171875 0.96875 -1.265625 C 0.96875 -1.335938 0.941406 -1.394531 0.890625 -1.4375 C 0.835938 -1.476562 0.765625 -1.5 0.671875 -1.5 C 0.515625 -1.5 0.359375 -1.425781 0.203125 -1.28125 L 0.078125 -1.5 C 0.285156 -1.664062 0.5 -1.75 0.71875 -1.75 Z M 0.71875 -1.75 "/></g></g></g><g fill="#3f4652" fill-opacity="1"><g transform="translate(47.301911, 9.956775)"><g><path d="M 0.65625 -1.015625 L 0.734375 -1 C 0.890625 -0.988281 1.007812 -0.941406 1.09375 -0.859375 C 1.1875 -0.773438 1.234375 -0.671875 1.234375 -0.546875 C 1.234375 -0.378906 1.175781 -0.242188 1.0625 -0.140625 C 0.945312 -0.0351562 0.789062 0.015625 0.59375 0.015625 C 0.488281 0.015625 0.382812 0 0.28125 -0.03125 C 0.175781 -0.0703125 0.0859375 -0.117188 0.015625 -0.171875 L 0.125 -0.421875 C 0.257812 -0.296875 0.410156 -0.234375 0.578125 -0.234375 C 0.691406 -0.234375 0.78125 -0.257812 0.84375 -0.3125 C 0.90625 -0.363281 0.9375 -0.4375 0.9375 -0.53125 C 0.9375 -0.625 0.90625 -0.691406 0.84375 -0.734375 C 0.78125 -0.785156 0.691406 -0.8125 0.578125 -0.8125 L 0.328125 -0.8125 L 0.328125 -0.984375 L 0.78125 -1.46875 L 0.09375 -1.46875 L 0.09375 -1.734375 L 1.140625 -1.734375 L 1.140625 -1.546875 Z M 0.65625 -1.015625 "/></g></g></g><g fill="#3f4652" fill-opacity="1"><g transform="translate(57.564154, 9.956775)"><g><path d="M 0.390625 -0.6875 L 0.90625 -0.6875 L 0.90625 -1.09375 L 1.171875 -1.09375 L 1.171875 -0.6875 L 1.4375 -0.6875 L 1.4375 -0.421875 L 1.171875 -0.421875 L 1.171875 0 L 0.90625 0 L 0.90625 -0.421875 L 0.078125 -0.421875 L 0.078125 -0.640625 L 0.671875 -1.734375 L 0.953125 -1.734375 Z M 0.390625 -0.6875 "/></g></g></g><g fill="#3f4652" fill-opacity="1"><g transform="translate(67.928974, 9.956775)"><g><path d="M 1.25 -1.46875 L 0.46875 -1.46875 L 0.46875 -1.09375 L 0.703125 -1.109375 C 0.890625 -1.109375 1.039062 -1.054688 1.15625 -0.953125 C 1.269531 -0.859375 1.328125 -0.734375 1.328125 -0.578125 C 1.328125 -0.398438 1.265625 -0.253906 1.140625 -0.140625 C 1.023438 -0.0351562 0.875 0.015625 0.6875 0.015625 C 0.582031 0.015625 0.472656 0 0.359375 -0.03125 C 0.242188 -0.0703125 0.144531 -0.125 0.0625 -0.1875 L 0.1875 -0.421875 C 0.332031 -0.304688 0.488281 -0.25 0.65625 -0.25 C 0.757812 -0.25 0.84375 -0.273438 0.90625 -0.328125 C 0.976562 -0.378906 1.015625 -0.457031 1.015625 -0.5625 C 1.015625 -0.644531 0.976562 -0.710938 0.90625 -0.765625 C 0.84375 -0.816406 0.757812 -0.84375 0.65625 -0.84375 C 0.488281 -0.84375 0.335938 -0.832031 0.203125 -0.8125 L 0.203125 -1.734375 L 1.25 -1.734375 Z M 1.25 -1.46875 "/></g></g></g><g fill="#3f4652" fill-opacity="1"><g transform="translate(5.857934, 16.288736)"><g><path d="M 0.875 -1.75 C 1.0625 -1.75 1.234375 -1.707031 1.390625 -1.625 L 1.28125 -1.40625 C 1.164062 -1.476562 1.035156 -1.515625 0.890625 -1.515625 C 0.722656 -1.515625 0.597656 -1.457031 0.515625 -1.34375 C 0.429688 -1.226562 0.394531 -1.070312 0.40625 -0.875 C 0.5 -1.039062 0.65625 -1.125 0.875 -1.125 C 1.050781 -1.125 1.1875 -1.070312 1.28125 -0.96875 C 1.382812 -0.875 1.4375 -0.742188 1.4375 -0.578125 C 1.4375 -0.390625 1.378906 -0.242188 1.265625 -0.140625 C 1.160156 -0.0351562 1.015625 0.015625 0.828125 0.015625 C 0.609375 0.015625 0.4375 -0.0546875 0.3125 -0.203125 C 0.1875 -0.359375 0.125 -0.566406 0.125 -0.828125 C 0.125 -1.109375 0.191406 -1.332031 0.328125 -1.5 C 0.460938 -1.664062 0.644531 -1.75 0.875 -1.75 Z M 0.828125 -0.890625 C 0.710938 -0.890625 0.617188 -0.859375 0.546875 -0.796875 C 0.484375 -0.734375 0.453125 -0.65625 0.453125 -0.5625 C 0.453125 -0.476562 0.484375 -0.398438 0.546875 -0.328125 C 0.609375 -0.265625 0.695312 -0.234375 0.8125 -0.234375 C 0.914062 -0.234375 1 -0.265625 1.0625 -0.328125 C 1.132812 -0.390625 1.171875 -0.472656 1.171875 -0.578125 C 1.171875 -0.671875 1.140625 -0.742188 1.078125 -0.796875 C 1.015625 -0.859375 0.929688 -0.890625 0.828125 -0.890625 Z M 0.828125 -0.890625 "/></g></g></g><g fill="#3f4652" fill-opacity="1"><g transform="translate(26.518679, 16.237267)"><g><path d="M 0.359375 -1.625 C 0.460938 -1.707031 0.601562 -1.75 0.78125 -1.75 C 0.957031 -1.75 1.097656 -1.707031 1.203125 -1.625 C 1.304688 -1.550781 1.359375 -1.441406 1.359375 -1.296875 C 1.359375 -1.210938 1.332031 -1.140625 1.28125 -1.078125 C 1.238281 -1.015625 1.179688 -0.960938 1.109375 -0.921875 C 1.210938 -0.890625 1.296875 -0.832031 1.359375 -0.75 C 1.421875 -0.675781 1.453125 -0.585938 1.453125 -0.484375 C 1.453125 -0.328125 1.390625 -0.203125 1.265625 -0.109375 C 1.148438 -0.0234375 0.988281 0.015625 0.78125 0.015625 C 0.570312 0.015625 0.40625 -0.0234375 0.28125 -0.109375 C 0.164062 -0.203125 0.109375 -0.328125 0.109375 -0.484375 C 0.109375 -0.585938 0.140625 -0.675781 0.203125 -0.75 C 0.265625 -0.832031 0.351562 -0.890625 0.46875 -0.921875 C 0.289062 -1.003906 0.203125 -1.132812 0.203125 -1.3125 C 0.203125 -1.445312 0.253906 -1.550781 0.359375 -1.625 Z M 0.78125 -1.546875 C 0.675781 -1.546875 0.59375 -1.519531 0.53125 -1.46875 C 0.46875 -1.425781 0.4375 -1.363281 0.4375 -1.28125 C 0.4375 -1.195312 0.46875 -1.132812 0.53125 -1.09375 C 0.59375 -1.050781 0.675781 -1.03125 0.78125 -1.03125 C 0.882812 -1.03125 0.960938 -1.050781 1.015625 -1.09375 C 1.078125 -1.132812 1.109375 -1.195312 1.109375 -1.28125 C 1.109375 -1.363281 1.078125 -1.425781 1.015625 -1.46875 C 0.960938 -1.519531 0.882812 -1.546875 0.78125 -1.546875 Z M 0.78125 -0.796875 C 0.65625 -0.796875 0.554688 -0.769531 0.484375 -0.71875 C 0.421875 -0.675781 0.390625 -0.609375 0.390625 -0.515625 C 0.390625 -0.421875 0.421875 -0.347656 0.484375 -0.296875 C 0.554688 -0.242188 0.65625 -0.21875 0.78125 -0.21875 C 0.90625 -0.21875 1 -0.242188 1.0625 -0.296875 C 1.132812 -0.347656 1.171875 -0.421875 1.171875 -0.515625 C 1.171875 -0.609375 1.132812 -0.675781 1.0625 -0.71875 C 1 -0.769531 0.90625 -0.796875 0.78125 -0.796875 Z M 0.78125 -0.796875 "/></g></g></g><g fill="#3f4652" fill-opacity="1"><g transform="translate(36.869724, 16.237267)"><g><path d="M 0.671875 0.015625 C 0.484375 0.015625 0.3125 -0.03125 0.15625 -0.125 L 0.265625 -0.34375 C 0.378906 -0.269531 0.507812 -0.234375 0.65625 -0.234375 C 0.820312 -0.234375 0.941406 -0.285156 1.015625 -0.390625 C 1.097656 -0.503906 1.140625 -0.660156 1.140625 -0.859375 C 1.046875 -0.691406 0.882812 -0.609375 0.65625 -0.609375 C 0.488281 -0.609375 0.351562 -0.660156 0.25 -0.765625 C 0.15625 -0.867188 0.109375 -1.003906 0.109375 -1.171875 C 0.109375 -1.347656 0.160156 -1.488281 0.265625 -1.59375 C 0.378906 -1.695312 0.53125 -1.75 0.71875 -1.75 C 0.9375 -1.75 1.109375 -1.671875 1.234375 -1.515625 C 1.359375 -1.367188 1.421875 -1.164062 1.421875 -0.90625 C 1.421875 -0.625 1.351562 -0.398438 1.21875 -0.234375 C 1.082031 -0.0664062 0.898438 0.015625 0.671875 0.015625 Z M 0.71875 -0.84375 C 0.832031 -0.84375 0.921875 -0.875 0.984375 -0.9375 C 1.054688 -1 1.09375 -1.078125 1.09375 -1.171875 C 1.09375 -1.253906 1.0625 -1.328125 1 -1.390625 C 0.9375 -1.460938 0.847656 -1.5 0.734375 -1.5 C 0.617188 -1.5 0.53125 -1.46875 0.46875 -1.40625 C 0.40625 -1.351562 0.375 -1.273438 0.375 -1.171875 C 0.375 -1.066406 0.40625 -0.984375 0.46875 -0.921875 C 0.53125 -0.867188 0.613281 -0.84375 0.71875 -0.84375 Z M 0.71875 -0.84375 "/></g></g></g><g fill="#3f4652" fill-opacity="1"><g transform="translate(46.4445, 16.237267)"><g><path d="M 0.671875 0 L 0.375 0 L 0.375 -1.484375 L 0.03125 -1.484375 L 0.03125 -1.734375 L 0.671875 -1.734375 Z M 0.671875 0 "/></g></g></g><g fill="#3f4652" fill-opacity="1"><g transform="translate(47.781665, 16.237267)"><g><path d="M 0.859375 -1.75 C 1.097656 -1.75 1.28125 -1.671875 1.40625 -1.515625 C 1.53125 -1.367188 1.59375 -1.15625 1.59375 -0.875 C 1.59375 -0.59375 1.53125 -0.375 1.40625 -0.21875 C 1.28125 -0.0703125 1.097656 0 0.859375 0 C 0.617188 0 0.4375 -0.0703125 0.3125 -0.21875 C 0.1875 -0.375 0.125 -0.59375 0.125 -0.875 C 0.125 -1.15625 0.1875 -1.367188 0.3125 -1.515625 C 0.4375 -1.671875 0.617188 -1.75 0.859375 -1.75 Z M 0.859375 -1.515625 C 0.566406 -1.515625 0.421875 -1.296875 0.421875 -0.859375 C 0.421875 -0.429688 0.566406 -0.21875 0.859375 -0.21875 C 1.148438 -0.21875 1.296875 -0.429688 1.296875 -0.859375 C 1.296875 -1.296875 1.148438 -1.515625 0.859375 -1.515625 Z M 0.859375 -1.515625 "/></g></g></g><g fill="#3f4652" fill-opacity="1"><g transform="translate(57.159947, 16.237267)"><g><path d="M 0.671875 0 L 0.375 0 L 0.375 -1.484375 L 0.03125 -1.484375 L 0.03125 -1.734375 L 0.671875 -1.734375 Z M 0.671875 0 "/></g></g></g><g fill="#3f4652" fill-opacity="1"><g transform="translate(58.497111, 16.237267)"><g><path d="M 0.671875 0 L 0.375 0 L 0.375 -1.484375 L 0.03125 -1.484375 L 0.03125 -1.734375 L 0.671875 -1.734375 Z M 0.671875 0 "/></g></g></g><g fill="#3f4652" fill-opacity="1"><g transform="translate(67.246108, 16.237267)"><g><path d="M 0.671875 0 L 0.375 0 L 0.375 -1.484375 L 0.03125 -1.484375 L 0.03125 -1.734375 L 0.671875 -1.734375 Z M 0.671875 0 "/></g></g></g><g fill="#3f4652" fill-opacity="1"><g transform="translate(68.583272, 16.237267)"><g><path d="M 0.71875 -1.75 C 0.882812 -1.75 1.015625 -1.707031 1.109375 -1.625 C 1.210938 -1.550781 1.265625 -1.445312 1.265625 -1.3125 C 1.265625 -1.15625 1.160156 -0.96875 0.953125 -0.75 L 0.5 -0.265625 L 1.34375 -0.265625 L 1.34375 0 L 0.109375 0 L 0.109375 -0.21875 L 0.75 -0.90625 C 0.894531 -1.050781 0.96875 -1.171875 0.96875 -1.265625 C 0.96875 -1.335938 0.941406 -1.394531 0.890625 -1.4375 C 0.835938 -1.476562 0.765625 -1.5 0.671875 -1.5 C 0.515625 -1.5 0.359375 -1.425781 0.203125 -1.28125 L 0.078125 -1.5 C 0.285156 -1.664062 0.5 -1.75 0.71875 -1.75 Z M 0.71875 -1.75 "/></g></g></g><g fill="#3f4652" fill-opacity="1"><g transform="translate(5.283775, 22.569228)"><g><path d="M 0.671875 0 L 0.375 0 L 0.375 -1.484375 L 0.03125 -1.484375 L 0.03125 -1.734375 L 0.671875 -1.734375 Z M 0.671875 0 "/></g></g></g><g fill="#3f4652" fill-opacity="1"><g transform="translate(6.62094, 22.569228)"><g><path d="M 0.65625 -1.015625 L 0.734375 -1 C 0.890625 -0.988281 1.007812 -0.941406 1.09375 -0.859375 C 1.1875 -0.773438 1.234375 -0.671875 1.234375 -0.546875 C 1.234375 -0.378906 1.175781 -0.242188 1.0625 -0.140625 C 0.945312 -0.0351562 0.789062 0.015625 0.59375 0.015625 C 0.488281 0.015625 0.382812 0 0.28125 -0.03125 C 0.175781 -0.0703125 0.0859375 -0.117188 0.015625 -0.171875 L 0.125 -0.421875 C 0.257812 -0.296875 0.410156 -0.234375 0.578125 -0.234375 C 0.691406 -0.234375 0.78125 -0.257812 0.84375 -0.3125 C 0.90625 -0.363281 0.9375 -0.4375 0.9375 -0.53125 C 0.9375 -0.625 0.90625 -0.691406 0.84375 -0.734375 C 0.78125 -0.785156 0.691406 -0.8125 0.578125 -0.8125 L 0.328125 -0.8125 L 0.328125 -0.984375 L 0.78125 -1.46875 L 0.09375 -1.46875 L 0.09375 -1.734375 L 1.140625 -1.734375 L 1.140625 -1.546875 Z M 0.65625 -1.015625 "/></g></g></g><g fill="#3f4652" fill-opacity="1"><g transform="translate(16.249209, 15.989399)"><g><path d="M 1.359375 -1.515625 L 0.65625 0 L 0.359375 0 L 1.03125 -1.46875 L 0.359375 -1.46875 L 0.34375 -1.234375 L 0.09375 -1.234375 L 0.09375 -1.734375 L 1.359375 -1.734375 Z M 1.359375 -1.515625 "/></g></g></g><g fill="#3f4652" fill-opacity="1"><g transform="translate(25.910836, 22.517758)"><g><path d="M 0.671875 0 L 0.375 0 L 0.375 -1.484375 L 0.03125 -1.484375 L 0.03125 -1.734375 L 0.671875 -1.734375 Z M 0.671875 0 "/></g></g></g><g fill="#3f4652" fill-opacity="1"><g transform="translate(27.248001, 22.517758)"><g><path d="M 1.25 -1.46875 L 0.46875 -1.46875 L 0.46875 -1.09375 L 0.703125 -1.109375 C 0.890625 -1.109375 1.039062 -1.054688 1.15625 -0.953125 C 1.269531 -0.859375 1.328125 -0.734375 1.328125 -0.578125 C 1.328125 -0.398438 1.265625 -0.253906 1.140625 -0.140625 C 1.023438 -0.0351562 0.875 0.015625 0.6875 0.015625 C 0.582031 0.015625 0.472656 0 0.359375 -0.03125 C 0.242188 -0.0703125 0.144531 -0.125 0.0625 -0.1875 L 0.1875 -0.421875 C 0.332031 -0.304688 0.488281 -0.25 0.65625 -0.25 C 0.757812 -0.25 0.84375 -0.273438 0.90625 -0.328125 C 0.976562 -0.378906 1.015625 -0.457031 1.015625 -0.5625 C 1.015625 -0.644531 0.976562 -0.710938 0.90625 -0.765625 C 0.84375 -0.816406 0.757812 -0.84375 0.65625 -0.84375 C 0.488281 -0.84375 0.335938 -0.832031 0.203125 -0.8125 L 0.203125 -1.734375 L 1.25 -1.734375 Z M 1.25 -1.46875 "/></g></g></g><g fill="#3f4652" fill-opacity="1"><g transform="translate(36.200638, 22.517758)"><g><path d="M 0.671875 0 L 0.375 0 L 0.375 -1.484375 L 0.03125 -1.484375 L 0.03125 -1.734375 L 0.671875 -1.734375 Z M 0.671875 0 "/></g></g></g><g fill="#3f4652" fill-opacity="1"><g transform="translate(37.537802, 22.517758)"><g><path d="M 0.875 -1.75 C 1.0625 -1.75 1.234375 -1.707031 1.390625 -1.625 L 1.28125 -1.40625 C 1.164062 -1.476562 1.035156 -1.515625 0.890625 -1.515625 C 0.722656 -1.515625 0.597656 -1.457031 0.515625 -1.34375 C 0.429688 -1.226562 0.394531 -1.070312 0.40625 -0.875 C 0.5 -1.039062 0.65625 -1.125 0.875 -1.125 C 1.050781 -1.125 1.1875 -1.070312 1.28125 -0.96875 C 1.382812 -0.875 1.4375 -0.742188 1.4375 -0.578125 C 1.4375 -0.390625 1.378906 -0.242188 1.265625 -0.140625 C 1.160156 -0.0351562 1.015625 0.015625 0.828125 0.015625 C 0.609375 0.015625 0.4375 -0.0546875 0.3125 -0.203125 C 0.1875 -0.359375 0.125 -0.566406 0.125 -0.828125 C 0.125 -1.109375 0.191406 -1.332031 0.328125 -1.5 C 0.460938 -1.664062 0.644531 -1.75 0.875 -1.75 Z M 0.828125 -0.890625 C 0.710938 -0.890625 0.617188 -0.859375 0.546875 -0.796875 C 0.484375 -0.734375 0.453125 -0.65625 0.453125 -0.5625 C 0.453125 -0.476562 0.484375 -0.398438 0.546875 -0.328125 C 0.609375 -0.265625 0.695312 -0.234375 0.8125 -0.234375 C 0.914062 -0.234375 1 -0.265625 1.0625 -0.328125 C 1.132812 -0.390625 1.171875 -0.472656 1.171875 -0.578125 C 1.171875 -0.671875 1.140625 -0.742188 1.078125 -0.796875 C 1.015625 -0.859375 0.929688 -0.890625 0.828125 -0.890625 Z M 0.828125 -0.890625 "/></g></g></g><g fill="#3f4652" fill-opacity="1"><g transform="translate(46.594547, 22.517758)"><g><path d="M 0.671875 0 L 0.375 0 L 0.375 -1.484375 L 0.03125 -1.484375 L 0.03125 -1.734375 L 0.671875 -1.734375 Z M 0.671875 0 "/></g></g></g><g fill="#3f4652" fill-opacity="1"><g transform="translate(47.931712, 22.517758)"><g><path d="M 1.359375 -1.515625 L 0.65625 0 L 0.359375 0 L 1.03125 -1.46875 L 0.359375 -1.46875 L 0.34375 -1.234375 L 0.09375 -1.234375 L 0.09375 -1.734375 L 1.359375 -1.734375 Z M 1.359375 -1.515625 "/></g></g></g><g fill="#3f4652" fill-opacity="1"><g transform="translate(56.861384, 22.517758)"><g><path d="M 0.671875 0 L 0.375 0 L 0.375 -1.484375 L 0.03125 -1.484375 L 0.03125 -1.734375 L 0.671875 -1.734375 Z M 0.671875 0 "/></g></g></g><g fill="#3f4652" fill-opacity="1"><g transform="translate(58.198549, 22.517758)"><g><path d="M 0.359375 -1.625 C 0.460938 -1.707031 0.601562 -1.75 0.78125 -1.75 C 0.957031 -1.75 1.097656 -1.707031 1.203125 -1.625 C 1.304688 -1.550781 1.359375 -1.441406 1.359375 -1.296875 C 1.359375 -1.210938 1.332031 -1.140625 1.28125 -1.078125 C 1.238281 -1.015625 1.179688 -0.960938 1.109375 -0.921875 C 1.210938 -0.890625 1.296875 -0.832031 1.359375 -0.75 C 1.421875 -0.675781 1.453125 -0.585938 1.453125 -0.484375 C 1.453125 -0.328125 1.390625 -0.203125 1.265625 -0.109375 C 1.148438 -0.0234375 0.988281 0.015625 0.78125 0.015625 C 0.570312 0.015625 0.40625 -0.0234375 0.28125 -0.109375 C 0.164062 -0.203125 0.109375 -0.328125 0.109375 -0.484375 C 0.109375 -0.585938 0.140625 -0.675781 0.203125 -0.75 C 0.265625 -0.832031 0.351562 -0.890625 0.46875 -0.921875 C 0.289062 -1.003906 0.203125 -1.132812 0.203125 -1.3125 C 0.203125 -1.445312 0.253906 -1.550781 0.359375 -1.625 Z M 0.78125 -1.546875 C 0.675781 -1.546875 0.59375 -1.519531 0.53125 -1.46875 C 0.46875 -1.425781 0.4375 -1.363281 0.4375 -1.28125 C 0.4375 -1.195312 0.46875 -1.132812 0.53125 -1.09375 C 0.59375 -1.050781 0.675781 -1.03125 0.78125 -1.03125 C 0.882812 -1.03125 0.960938 -1.050781 1.015625 -1.09375 C 1.078125 -1.132812 1.109375 -1.195312 1.109375 -1.28125 C 1.109375 -1.363281 1.078125 -1.425781 1.015625 -1.46875 C 0.960938 -1.519531 0.882812 -1.546875 0.78125 -1.546875 Z M 0.78125 -0.796875 C 0.65625 -0.796875 0.554688 -0.769531 0.484375 -0.71875 C 0.421875 -0.675781 0.390625 -0.609375 0.390625 -0.515625 C 0.390625 -0.421875 0.421875 -0.347656 0.484375 -0.296875 C 0.554688 -0.242188 0.65625 -0.21875 0.78125 -0.21875 C 0.90625 -0.21875 1 -0.242188 1.0625 -0.296875 C 1.132812 -0.347656 1.171875 -0.421875 1.171875 -0.515625 C 1.171875 -0.609375 1.132812 -0.675781 1.0625 -0.71875 C 1 -0.769531 0.90625 -0.796875 0.78125 -0.796875 Z M 0.78125 -0.796875 "/></g></g></g><g fill="#3f4652" fill-opacity="1"><g transform="translate(67.212424, 22.517758)"><g><path d="M 0.671875 0 L 0.375 0 L 0.375 -1.484375 L 0.03125 -1.484375 L 0.03125 -1.734375 L 0.671875 -1.734375 Z M 0.671875 0 "/></g></g></g><g fill="#3f4652" fill-opacity="1"><g transform="translate(68.549588, 22.517758)"><g><path d="M 0.671875 0.015625 C 0.484375 0.015625 0.3125 -0.03125 0.15625 -0.125 L 0.265625 -0.34375 C 0.378906 -0.269531 0.507812 -0.234375 0.65625 -0.234375 C 0.820312 -0.234375 0.941406 -0.285156 1.015625 -0.390625 C 1.097656 -0.503906 1.140625 -0.660156 1.140625 -0.859375 C 1.046875 -0.691406 0.882812 -0.609375 0.65625 -0.609375 C 0.488281 -0.609375 0.351562 -0.660156 0.25 -0.765625 C 0.15625 -0.867188 0.109375 -1.003906 0.109375 -1.171875 C 0.109375 -1.347656 0.160156 -1.488281 0.265625 -1.59375 C 0.378906 -1.695312 0.53125 -1.75 0.71875 -1.75 C 0.9375 -1.75 1.109375 -1.671875 1.234375 -1.515625 C 1.359375 -1.367188 1.421875 -1.164062 1.421875 -0.90625 C 1.421875 -0.625 1.351562 -0.398438 1.21875 -0.234375 C 1.082031 -0.0664062 0.898438 0.015625 0.671875 0.015625 Z M 0.71875 -0.84375 C 0.832031 -0.84375 0.921875 -0.875 0.984375 -0.9375 C 1.054688 -1 1.09375 -1.078125 1.09375 -1.171875 C 1.09375 -1.253906 1.0625 -1.328125 1 -1.390625 C 0.9375 -1.460938 0.847656 -1.5 0.734375 -1.5 C 0.617188 -1.5 0.53125 -1.46875 0.46875 -1.40625 C 0.40625 -1.351562 0.375 -1.273438 0.375 -1.171875 C 0.375 -1.066406 0.40625 -0.984375 0.46875 -0.921875 C 0.53125 -0.867188 0.613281 -0.84375 0.71875 -0.84375 Z M 0.71875 -0.84375 "/></g></g></g><g fill="#3f4652" fill-opacity="1"><g transform="translate(4.844352, 28.849721)"><g><path d="M 0.71875 -1.75 C 0.882812 -1.75 1.015625 -1.707031 1.109375 -1.625 C 1.210938 -1.550781 1.265625 -1.445312 1.265625 -1.3125 C 1.265625 -1.15625 1.160156 -0.96875 0.953125 -0.75 L 0.5 -0.265625 L 1.34375 -0.265625 L 1.34375 0 L 0.109375 0 L 0.109375 -0.21875 L 0.75 -0.90625 C 0.894531 -1.050781 0.96875 -1.171875 0.96875 -1.265625 C 0.96875 -1.335938 0.941406 -1.394531 0.890625 -1.4375 C 0.835938 -1.476562 0.765625 -1.5 0.671875 -1.5 C 0.515625 -1.5 0.359375 -1.425781 0.203125 -1.28125 L 0.078125 -1.5 C 0.285156 -1.664062 0.5 -1.75 0.71875 -1.75 Z M 0.71875 -1.75 "/></g></g></g><g fill="#3f4652" fill-opacity="1"><g transform="translate(6.681919, 28.849721)"><g><path d="M 0.859375 -1.75 C 1.097656 -1.75 1.28125 -1.671875 1.40625 -1.515625 C 1.53125 -1.367188 1.59375 -1.15625 1.59375 -0.875 C 1.59375 -0.59375 1.53125 -0.375 1.40625 -0.21875 C 1.28125 -0.0703125 1.097656 0 0.859375 0 C 0.617188 0 0.4375 -0.0703125 0.3125 -0.21875 C 0.1875 -0.375 0.125 -0.59375 0.125 -0.875 C 0.125 -1.15625 0.1875 -1.367188 0.3125 -1.515625 C 0.4375 -1.671875 0.617188 -1.75 0.859375 -1.75 Z M 0.859375 -1.515625 C 0.566406 -1.515625 0.421875 -1.296875 0.421875 -0.859375 C 0.421875 -0.429688 0.566406 -0.21875 0.859375 -0.21875 C 1.148438 -0.21875 1.296875 -0.429688 1.296875 -0.859375 C 1.296875 -1.296875 1.148438 -1.515625 0.859375 -1.515625 Z M 0.859375 -1.515625 "/></g></g></g><g fill="#3f4652" fill-opacity="1"><g transform="translate(15.545019, 22.269891)"><g><path d="M 0.671875 0 L 0.375 0 L 0.375 -1.484375 L 0.03125 -1.484375 L 0.03125 -1.734375 L 0.671875 -1.734375 Z M 0.671875 0 "/></g></g></g><g fill="#3f4652" fill-opacity="1"><g transform="translate(16.882248, 22.269891)"><g><path d="M 0.390625 -0.6875 L 0.90625 -0.6875 L 0.90625 -1.09375 L 1.171875 -1.09375 L 1.171875 -0.6875 L 1.4375 -0.6875 L 1.4375 -0.421875 L 1.171875 -0.421875 L 1.171875 0 L 0.90625 0 L 0.90625 -0.421875 L 0.078125 -0.421875 L 0.078125 -0.640625 L 0.671875 -1.734375 L 0.953125 -1.734375 Z M 0.390625 -0.6875 "/></g></g></g><g fill="#3f4652" fill-opacity="1"><g transform="translate(25.647489, 28.798255)"><g><path d="M 0.71875 -1.75 C 0.882812 -1.75 1.015625 -1.707031 1.109375 -1.625 C 1.210938 -1.550781 1.265625 -1.445312 1.265625 -1.3125 C 1.265625 -1.15625 1.160156 -0.96875 0.953125 -0.75 L 0.5 -0.265625 L 1.34375 -0.265625 L 1.34375 0 L 0.109375 0 L 0.109375 -0.21875 L 0.75 -0.90625 C 0.894531 -1.050781 0.96875 -1.171875 0.96875 -1.265625 C 0.96875 -1.335938 0.941406 -1.394531 0.890625 -1.4375 C 0.835938 -1.476562 0.765625 -1.5 0.671875 -1.5 C 0.515625 -1.5 0.359375 -1.425781 0.203125 -1.28125 L 0.078125 -1.5 C 0.285156 -1.664062 0.5 -1.75 0.71875 -1.75 Z M 0.71875 -1.75 "/></g></g></g><g fill="#3f4652" fill-opacity="1"><g transform="translate(27.485055, 28.798255)"><g><path d="M 0.71875 -1.75 C 0.882812 -1.75 1.015625 -1.707031 1.109375 -1.625 C 1.210938 -1.550781 1.265625 -1.445312 1.265625 -1.3125 C 1.265625 -1.15625 1.160156 -0.96875 0.953125 -0.75 L 0.5 -0.265625 L 1.34375 -0.265625 L 1.34375 0 L 0.109375 0 L 0.109375 -0.21875 L 0.75 -0.90625 C 0.894531 -1.050781 0.96875 -1.171875 0.96875 -1.265625 C 0.96875 -1.335938 0.941406 -1.394531 0.890625 -1.4375 C 0.835938 -1.476562 0.765625 -1.5 0.671875 -1.5 C 0.515625 -1.5 0.359375 -1.425781 0.203125 -1.28125 L 0.078125 -1.5 C 0.285156 -1.664062 0.5 -1.75 0.71875 -1.75 Z M 0.71875 -1.75 "/></g></g></g><g fill="#3f4652" fill-opacity="1"><g transform="translate(36.045997, 28.798255)"><g><path d="M 0.71875 -1.75 C 0.882812 -1.75 1.015625 -1.707031 1.109375 -1.625 C 1.210938 -1.550781 1.265625 -1.445312 1.265625 -1.3125 C 1.265625 -1.15625 1.160156 -0.96875 0.953125 -0.75 L 0.5 -0.265625 L 1.34375 -0.265625 L 1.34375 0 L 0.109375 0 L 0.109375 -0.21875 L 0.75 -0.90625 C 0.894531 -1.050781 0.96875 -1.171875 0.96875 -1.265625 C 0.96875 -1.335938 0.941406 -1.394531 0.890625 -1.4375 C 0.835938 -1.476562 0.765625 -1.5 0.671875 -1.5 C 0.515625 -1.5 0.359375 -1.425781 0.203125 -1.28125 L 0.078125 -1.5 C 0.285156 -1.664062 0.5 -1.75 0.71875 -1.75 Z M 0.71875 -1.75 "/></g></g></g><g fill="#3f4652" fill-opacity="1"><g transform="translate(37.883564, 28.798255)"><g><path d="M 0.65625 -1.015625 L 0.734375 -1 C 0.890625 -0.988281 1.007812 -0.941406 1.09375 -0.859375 C 1.1875 -0.773438 1.234375 -0.671875 1.234375 -0.546875 C 1.234375 -0.378906 1.175781 -0.242188 1.0625 -0.140625 C 0.945312 -0.0351562 0.789062 0.015625 0.59375 0.015625 C 0.488281 0.015625 0.382812 0 0.28125 -0.03125 C 0.175781 -0.0703125 0.0859375 -0.117188 0.015625 -0.171875 L 0.125 -0.421875 C 0.257812 -0.296875 0.410156 -0.234375 0.578125 -0.234375 C 0.691406 -0.234375 0.78125 -0.257812 0.84375 -0.3125 C 0.90625 -0.363281 0.9375 -0.4375 0.9375 -0.53125 C 0.9375 -0.625 0.90625 -0.691406 0.84375 -0.734375 C 0.78125 -0.785156 0.691406 -0.8125 0.578125 -0.8125 L 0.328125 -0.8125 L 0.328125 -0.984375 L 0.78125 -1.46875 L 0.09375 -1.46875 L 0.09375 -1.734375 L 1.140625 -1.734375 L 1.140625 -1.546875 Z M 0.65625 -1.015625 "/></g></g></g><g fill="#3f4652" fill-opacity="1"><g transform="translate(46.308233, 28.798255)"><g><path d="M 0.71875 -1.75 C 0.882812 -1.75 1.015625 -1.707031 1.109375 -1.625 C 1.210938 -1.550781 1.265625 -1.445312 1.265625 -1.3125 C 1.265625 -1.15625 1.160156 -0.96875 0.953125 -0.75 L 0.5 -0.265625 L 1.34375 -0.265625 L 1.34375 0 L 0.109375 0 L 0.109375 -0.21875 L 0.75 -0.90625 C 0.894531 -1.050781 0.96875 -1.171875 0.96875 -1.265625 C 0.96875 -1.335938 0.941406 -1.394531 0.890625 -1.4375 C 0.835938 -1.476562 0.765625 -1.5 0.671875 -1.5 C 0.515625 -1.5 0.359375 -1.425781 0.203125 -1.28125 L 0.078125 -1.5 C 0.285156 -1.664062 0.5 -1.75 0.71875 -1.75 Z M 0.71875 -1.75 "/></g></g></g><g fill="#3f4652" fill-opacity="1"><g transform="translate(48.1458, 28.798255)"><g><path d="M 0.390625 -0.6875 L 0.90625 -0.6875 L 0.90625 -1.09375 L 1.171875 -1.09375 L 1.171875 -0.6875 L 1.4375 -0.6875 L 1.4375 -0.421875 L 1.171875 -0.421875 L 1.171875 0 L 0.90625 0 L 0.90625 -0.421875 L 0.078125 -0.421875 L 0.078125 -0.640625 L 0.671875 -1.734375 L 0.953125 -1.734375 Z M 0.390625 -0.6875 "/></g></g></g><g fill="#3f4652" fill-opacity="1"><g transform="translate(56.67306, 28.798255)"><g><path d="M 0.71875 -1.75 C 0.882812 -1.75 1.015625 -1.707031 1.109375 -1.625 C 1.210938 -1.550781 1.265625 -1.445312 1.265625 -1.3125 C 1.265625 -1.15625 1.160156 -0.96875 0.953125 -0.75 L 0.5 -0.265625 L 1.34375 -0.265625 L 1.34375 0 L 0.109375 0 L 0.109375 -0.21875 L 0.75 -0.90625 C 0.894531 -1.050781 0.96875 -1.171875 0.96875 -1.265625 C 0.96875 -1.335938 0.941406 -1.394531 0.890625 -1.4375 C 0.835938 -1.476562 0.765625 -1.5 0.671875 -1.5 C 0.515625 -1.5 0.359375 -1.425781 0.203125 -1.28125 L 0.078125 -1.5 C 0.285156 -1.664062 0.5 -1.75 0.71875 -1.75 Z M 0.71875 -1.75 "/></g></g></g><g fill="#3f4652" fill-opacity="1"><g transform="translate(58.510626, 28.798255)"><g><path d="M 1.25 -1.46875 L 0.46875 -1.46875 L 0.46875 -1.09375 L 0.703125 -1.109375 C 0.890625 -1.109375 1.039062 -1.054688 1.15625 -0.953125 C 1.269531 -0.859375 1.328125 -0.734375 1.328125 -0.578125 C 1.328125 -0.398438 1.265625 -0.253906 1.140625 -0.140625 C 1.023438 -0.0351562 0.875 0.015625 0.6875 0.015625 C 0.582031 0.015625 0.472656 0 0.359375 -0.03125 C 0.242188 -0.0703125 0.144531 -0.125 0.0625 -0.1875 L 0.1875 -0.421875 C 0.332031 -0.304688 0.488281 -0.25 0.65625 -0.25 C 0.757812 -0.25 0.84375 -0.273438 0.90625 -0.328125 C 0.976562 -0.378906 1.015625 -0.457031 1.015625 -0.5625 C 1.015625 -0.644531 0.976562 -0.710938 0.90625 -0.765625 C 0.84375 -0.816406 0.757812 -0.84375 0.65625 -0.84375 C 0.488281 -0.84375 0.335938 -0.832031 0.203125 -0.8125 L 0.203125 -1.734375 L 1.25 -1.734375 Z M 1.25 -1.46875 "/></g></g></g><g fill="#3f4652" fill-opacity="1"><g transform="translate(66.962856, 28.798255)"><g><path d="M 0.71875 -1.75 C 0.882812 -1.75 1.015625 -1.707031 1.109375 -1.625 C 1.210938 -1.550781 1.265625 -1.445312 1.265625 -1.3125 C 1.265625 -1.15625 1.160156 -0.96875 0.953125 -0.75 L 0.5 -0.265625 L 1.34375 -0.265625 L 1.34375 0 L 0.109375 0 L 0.109375 -0.21875 L 0.75 -0.90625 C 0.894531 -1.050781 0.96875 -1.171875 0.96875 -1.265625 C 0.96875 -1.335938 0.941406 -1.394531 0.890625 -1.4375 C 0.835938 -1.476562 0.765625 -1.5 0.671875 -1.5 C 0.515625 -1.5 0.359375 -1.425781 0.203125 -1.28125 L 0.078125 -1.5 C 0.285156 -1.664062 0.5 -1.75 0.71875 -1.75 Z M 0.71875 -1.75 "/></g></g></g><g fill="#3f4652" fill-opacity="1"><g transform="translate(68.800422, 28.798255)"><g><path d="M 0.875 -1.75 C 1.0625 -1.75 1.234375 -1.707031 1.390625 -1.625 L 1.28125 -1.40625 C 1.164062 -1.476562 1.035156 -1.515625 0.890625 -1.515625 C 0.722656 -1.515625 0.597656 -1.457031 0.515625 -1.34375 C 0.429688 -1.226562 0.394531 -1.070312 0.40625 -0.875 C 0.5 -1.039062 0.65625 -1.125 0.875 -1.125 C 1.050781 -1.125 1.1875 -1.070312 1.28125 -0.96875 C 1.382812 -0.875 1.4375 -0.742188 1.4375 -0.578125 C 1.4375 -0.390625 1.378906 -0.242188 1.265625 -0.140625 C 1.160156 -0.0351562 1.015625 0.015625 0.828125 0.015625 C 0.609375 0.015625 0.4375 -0.0546875 0.3125 -0.203125 C 0.1875 -0.359375 0.125 -0.566406 0.125 -0.828125 C 0.125 -1.109375 0.191406 -1.332031 0.328125 -1.5 C 0.460938 -1.664062 0.644531 -1.75 0.875 -1.75 Z M 0.828125 -0.890625 C 0.710938 -0.890625 0.617188 -0.859375 0.546875 -0.796875 C 0.484375 -0.734375 0.453125 -0.65625 0.453125 -0.5625 C 0.453125 -0.476562 0.484375 -0.398438 0.546875 -0.328125 C 0.609375 -0.265625 0.695312 -0.234375 0.8125 -0.234375 C 0.914062 -0.234375 1 -0.265625 1.0625 -0.328125 C 1.132812 -0.390625 1.171875 -0.472656 1.171875 -0.578125 C 1.171875 -0.671875 1.140625 -0.742188 1.078125 -0.796875 C 1.015625 -0.859375 0.929688 -0.890625 0.828125 -0.890625 Z M 0.828125 -0.890625 "/></g></g></g><g fill="#3f4652" fill-opacity="1"><g transform="translate(4.994399, 35.130216)"><g><path d="M 0.71875 -1.75 C 0.882812 -1.75 1.015625 -1.707031 1.109375 -1.625 C 1.210938 -1.550781 1.265625 -1.445312 1.265625 -1.3125 C 1.265625 -1.15625 1.160156 -0.96875 0.953125 -0.75 L 0.5 -0.265625 L 1.34375 -0.265625 L 1.34375 0 L 0.109375 0 L 0.109375 -0.21875 L 0.75 -0.90625 C 0.894531 -1.050781 0.96875 -1.171875 0.96875 -1.265625 C 0.96875 -1.335938 0.941406 -1.394531 0.890625 -1.4375 C 0.835938 -1.476562 0.765625 -1.5 0.671875 -1.5 C 0.515625 -1.5 0.359375 -1.425781 0.203125 -1.28125 L 0.078125 -1.5 C 0.285156 -1.664062 0.5 -1.75 0.71875 -1.75 Z M 0.71875 -1.75 "/></g></g></g><g fill="#3f4652" fill-opacity="1"><g transform="translate(6.831966, 35.130216)"><g><path d="M 1.359375 -1.515625 L 0.65625 0 L 0.359375 0 L 1.03125 -1.46875 L 0.359375 -1.46875 L 0.34375 -1.234375 L 0.09375 -1.234375 L 0.09375 -1.734375 L 1.359375 -1.734375 Z M 1.359375 -1.515625 "/></g></g></g><g fill="#3f4652" fill-opacity="1"><g transform="translate(15.559341, 28.550384)"><g><path d="M 0.71875 -1.75 C 0.882812 -1.75 1.015625 -1.707031 1.109375 -1.625 C 1.210938 -1.550781 1.265625 -1.445312 1.265625 -1.3125 C 1.265625 -1.15625 1.160156 -0.96875 0.953125 -0.75 L 0.5 -0.265625 L 1.34375 -0.265625 L 1.34375 0 L 0.109375 0 L 0.109375 -0.21875 L 0.75 -0.90625 C 0.894531 -1.050781 0.96875 -1.171875 0.96875 -1.265625 C 0.96875 -1.335938 0.941406 -1.394531 0.890625 -1.4375 C 0.835938 -1.476562 0.765625 -1.5 0.671875 -1.5 C 0.515625 -1.5 0.359375 -1.425781 0.203125 -1.28125 L 0.078125 -1.5 C 0.285156 -1.664062 0.5 -1.75 0.71875 -1.75 Z M 0.71875 -1.75 "/></g></g></g><g fill="#3f4652" fill-opacity="1"><g transform="translate(17.397005, 28.550384)"><g><path d="M 0.671875 0 L 0.375 0 L 0.375 -1.484375 L 0.03125 -1.484375 L 0.03125 -1.734375 L 0.671875 -1.734375 Z M 0.671875 0 "/></g></g></g><g fill="#3f4652" fill-opacity="1"><g transform="translate(15.260955, 34.830879)"><g><path d="M 0.71875 -1.75 C 0.882812 -1.75 1.015625 -1.707031 1.109375 -1.625 C 1.210938 -1.550781 1.265625 -1.445312 1.265625 -1.3125 C 1.265625 -1.15625 1.160156 -0.96875 0.953125 -0.75 L 0.5 -0.265625 L 1.34375 -0.265625 L 1.34375 0 L 0.109375 0 L 0.109375 -0.21875 L 0.75 -0.90625 C 0.894531 -1.050781 0.96875 -1.171875 0.96875 -1.265625 C 0.96875 -1.335938 0.941406 -1.394531 0.890625 -1.4375 C 0.835938 -1.476562 0.765625 -1.5 0.671875 -1.5 C 0.515625 -1.5 0.359375 -1.425781 0.203125 -1.28125 L 0.078125 -1.5 C 0.285156 -1.664062 0.5 -1.75 0.71875 -1.75 Z M 0.71875 -1.75 "/></g></g></g><g fill="#3f4652" fill-opacity="1"><g transform="translate(17.098619, 34.830879)"><g><path d="M 0.359375 -1.625 C 0.460938 -1.707031 0.601562 -1.75 0.78125 -1.75 C 0.957031 -1.75 1.097656 -1.707031 1.203125 -1.625 C 1.304688 -1.550781 1.359375 -1.441406 1.359375 -1.296875 C 1.359375 -1.210938 1.332031 -1.140625 1.28125 -1.078125 C 1.238281 -1.015625 1.179688 -0.960938 1.109375 -0.921875 C 1.210938 -0.890625 1.296875 -0.832031 1.359375 -0.75 C 1.421875 -0.675781 1.453125 -0.585938 1.453125 -0.484375 C 1.453125 -0.328125 1.390625 -0.203125 1.265625 -0.109375 C 1.148438 -0.0234375 0.988281 0.015625 0.78125 0.015625 C 0.570312 0.015625 0.40625 -0.0234375 0.28125 -0.109375 C 0.164062 -0.203125 0.109375 -0.328125 0.109375 -0.484375 C 0.109375 -0.585938 0.140625 -0.675781 0.203125 -0.75 C 0.265625 -0.832031 0.351562 -0.890625 0.46875 -0.921875 C 0.289062 -1.003906 0.203125 -1.132812 0.203125 -1.3125 C 0.203125 -1.445312 0.253906 -1.550781 0.359375 -1.625 Z M 0.78125 -1.546875 C 0.675781 -1.546875 0.59375 -1.519531 0.53125 -1.46875 C 0.46875 -1.425781 0.4375 -1.363281 0.4375 -1.28125 C 0.4375 -1.195312 0.46875 -1.132812 0.53125 -1.09375 C 0.59375 -1.050781 0.675781 -1.03125 0.78125 -1.03125 C 0.882812 -1.03125 0.960938 -1.050781 1.015625 -1.09375 C 1.078125 -1.132812 1.109375 -1.195312 1.109375 -1.28125 C 1.109375 -1.363281 1.078125 -1.425781 1.015625 -1.46875 C 0.960938 -1.519531 0.882812 -1.546875 0.78125 -1.546875 Z M 0.78125 -0.796875 C 0.65625 -0.796875 0.554688 -0.769531 0.484375 -0.71875 C 0.421875 -0.675781 0.390625 -0.609375 0.390625 -0.515625 C 0.390625 -0.421875 0.421875 -0.347656 0.484375 -0.296875 C 0.554688 -0.242188 0.65625 -0.21875 0.78125 -0.21875 C 0.90625 -0.21875 1 -0.242188 1.0625 -0.296875 C 1.132812 -0.347656 1.171875 -0.421875 1.171875 -0.515625 C 1.171875 -0.609375 1.132812 -0.675781 1.0625 -0.71875 C 1 -0.769531 0.90625 -0.796875 0.78125 -0.796875 Z M 0.78125 -0.796875 "/></g></g></g></svg>