<svg width="18" height="20" viewBox="0 0 18 20" fill="none" xmlns="http://www.w3.org/2000/svg">
<path fill-rule="evenodd" clip-rule="evenodd" d="M8.89684 19.9995C8.56533 19.996 8.24877 19.8611 8.01678 19.6242C7.78479 19.3874 7.65639 19.0681 7.65981 18.7366L7.8094 4.25488L2.38925 9.56668C2.27183 9.68169 2.13291 9.77245 1.98042 9.83378C1.82793 9.89511 1.66486 9.9258 1.50051 9.9241C1.33616 9.9224 1.17375 9.88835 1.02256 9.82389C0.871367 9.75942 0.734354 9.66581 0.61934 9.5484C0.504326 9.43099 0.413567 9.29207 0.35224 9.13958C0.290915 8.98709 0.260224 8.82401 0.261922 8.65966C0.263619 8.49531 0.297672 8.3329 0.362134 8.18171C0.426597 8.03052 0.520207 7.89351 0.637622 7.77849L8.21469 0.356358C8.332 0.241156 8.47088 0.150228 8.62339 0.0887852C8.77589 0.0273402 8.93902 -0.00341291 9.10343 -0.00171469C9.26784 -1.64742e-05 9.4303 0.0340997 9.58151 0.0986818C9.73271 0.163262 9.86969 0.257039 9.98459 0.37464L17.4067 7.9517C17.5217 8.06912 17.6125 8.20804 17.6738 8.36053C17.7352 8.51302 17.7658 8.67609 17.7641 8.84044C17.7624 9.0048 17.7284 9.1672 17.6639 9.31839C17.5995 9.46958 17.5059 9.6066 17.3884 9.72161C17.1513 9.95389 16.8316 10.0825 16.4997 10.079C16.3354 10.0773 16.1729 10.0433 16.0218 9.97882C15.8706 9.91435 15.7336 9.82074 15.6185 9.70333L10.3093 4.2807L10.1597 18.7624C10.1563 19.0939 10.0213 19.4105 9.78445 19.6425C9.54763 19.8745 9.22834 20.0029 8.89684 19.9995Z" fill="#111111"/>
</svg>
