<?xml version="1.0" ?>
<!-- Uploaded to: SVG Repo, www.svgrepo.com, Generator: SVG Repo Mixer Tools -->
<svg fill="#000000" width="800px" height="800px" viewBox="0 0 96 96" xmlns="http://www.w3.org/2000/svg">
<title/>
<g data-name="Payment History" id="Payment_History">
<path d="M34,48.5A6.5,6.5,0,1,0,40.5,42,6.51,6.51,0,0,0,34,48.5Zm12,0A5.5,5.5,0,1,1,40.5,43,5.51,5.51,0,0,1,46,48.5Z"/>
<path d="M55,48.5A2.5,2.5,0,1,0,52.5,51,2.5,2.5,0,0,0,55,48.5ZM52.5,50A1.5,1.5,0,1,1,54,48.5,1.5,1.5,0,0,1,52.5,50Z"/>
<path d="M25,48.5A2.5,2.5,0,1,0,27.5,46,2.5,2.5,0,0,0,25,48.5Zm4,0A1.5,1.5,0,1,1,27.5,47,1.5,1.5,0,0,1,29,48.5Z"/>
<path d="M16.5,31a.5.5,0,0,0,.5-.5V27H64v3.5a.5.5,0,0,0,1,0v-4a.5.5,0,0,0-.5-.5h-48a.5.5,0,0,0-.5.5v4A.5.5,0,0,0,16.5,31Z"/>
<path d="M20.5,25a.5.5,0,0,0,.5-.5V21H60v3.5a.5.5,0,0,0,1,0v-4a.5.5,0,0,0-.5-.5h-40a.5.5,0,0,0-.5.5v4A.5.5,0,0,0,20.5,25Z"/>
<path d="M69.5,46A14.54,14.54,0,0,0,55.26,57.9L54,55.28a.5.5,0,0,0-.9.44l2,4,0,0,0,0a.39.39,0,0,0,.1.08l.06,0a.55.55,0,0,0,.24.07h0a.52.52,0,0,0,.43-.21L59.8,56.9a.5.5,0,0,0-.6-.8l-3,2.26a13.49,13.49,0,1,1,.54,6.48.51.51,0,0,0-.64-.31.5.5,0,0,0-.31.63A14.5,14.5,0,1,0,69.5,46Z"/>
<path d="M68.5,52a.5.5,0,0,0-.5.5v10a0,0,0,0,0,0,0,.44.44,0,0,0,0,.1.29.29,0,0,0,0,.09l0,.07a.27.27,0,0,0,.07.08l0,0,5,4a.51.51,0,0,0,.31.11.48.48,0,0,0,.39-.19.5.5,0,0,0-.08-.7L69,62.26V52.5A.5.5,0,0,0,68.5,52Z"/>
<path d="M49.5,63H13V34H68v9.55a.5.5,0,0,0,1,0v-10a.5.5,0,0,0-.5-.5h-56a.5.5,0,0,0-.5.5v30a.5.5,0,0,0,.5.5h37a.5.5,0,0,0,0-1Z"/>
<path d="M50.16,58H21.09A3.63,3.63,0,0,0,18,54.91V42.09A3.63,3.63,0,0,0,21.09,39H58.91A3.63,3.63,0,0,0,62,42.09v2.69a.5.5,0,0,0,1,0V41.63a.5.5,0,0,0-.5-.5,2.63,2.63,0,0,1-2.63-2.63.5.5,0,0,0-.5-.5H20.63a.5.5,0,0,0-.5.5,2.63,2.63,0,0,1-2.63,2.63.5.5,0,0,0-.5.5V55.37a.5.5,0,0,0,.5.5,2.63,2.63,0,0,1,2.63,2.63.5.5,0,0,0,.5.5H50.16a.5.5,0,0,0,0-1Z"/>
</g>
</svg>