<svg width="79" height="66" viewBox="0 0 79 66" fill="none" xmlns="http://www.w3.org/2000/svg">
<g clip-path="url(#clip0_65_360)">
<path d="M9.875 8.25H19.75V16.5H9.875V8.25Z" fill="#111111"/>
<path d="M29.625 0V24.75H0V0H29.625ZM24.6875 4.125H4.9375V20.625H24.6875V4.125ZM19.75 49.5H9.875V57.75H19.75V49.5Z" fill="#111111"/>
<path d="M29.625 41.25V66H0V41.25H29.625ZM4.9375 45.375V61.875H24.6875V45.375H4.9375ZM59.25 8.25H69.125V16.5H59.25V8.25Z" fill="#111111"/>
<path d="M49.375 0V24.75H79V0H49.375ZM74.0625 4.125V20.625H54.3125V4.125H74.0625ZM39.5 4.125V0H44.4375V8.25H39.5V16.5H34.5625V4.125H39.5ZM39.5 24.75V16.5H44.4375V24.75H39.5ZM29.625 33V28.875H34.5625V24.75H39.5V33H44.4375V28.875H69.125V33H49.375V37.125H34.5625V33H29.625ZM29.625 33V37.125H9.875V33H4.9375V37.125H0V28.875H14.8125V33H29.625ZM79 37.125H74.0625V28.875H79V37.125ZM74.0625 37.125H69.125V45.375H79V41.25H74.0625V37.125ZM54.3125 37.125H64.1875V41.25H59.25V45.375H54.3125V37.125ZM64.1875 49.5V45.375H59.25V49.5H54.3125V53.625H44.4375V57.75H59.25V49.5H64.1875ZM64.1875 49.5H79V53.625H69.125V57.75H64.1875V49.5ZM44.4375 45.375V49.5H49.375V41.25H34.5625V45.375H44.4375Z" fill="#111111"/>
<path d="M34.5625 49.5H39.5V61.875H59.25V66H34.5625V49.5ZM79 57.75V66H64.1875V61.875H74.0625V57.75H79Z" fill="#111111"/>
</g>
<defs>
<clipPath id="clip0_65_360">
<rect width="79" height="66" fill="white"/>
</clipPath>
</defs>
</svg>
