<svg width="30" height="30" viewBox="0 0 30 30" fill="none" xmlns="http://www.w3.org/2000/svg">
<g clip-path="url(#clip0_65_292)">
<path fill-rule="evenodd" clip-rule="evenodd" d="M1.875 20.625C1.875 22.6141 2.66518 24.5218 4.0717 25.9283C5.47822 27.3348 7.38588 28.125 9.375 28.125C11.3641 28.125 13.2718 27.3348 14.6783 25.9283C16.0848 24.5218 16.875 22.6141 16.875 20.625C16.875 18.6359 16.0848 16.7282 14.6783 15.3217C13.2718 13.9152 11.3641 13.125 9.375 13.125C7.38588 13.125 5.47822 13.9152 4.0717 15.3217C2.66518 16.7282 1.875 18.6359 1.875 20.625ZM9.375 30C6.8886 30 4.50403 29.0123 2.74587 27.2541C0.98772 25.496 0 23.1114 0 20.625C0 18.1386 0.98772 15.754 2.74587 13.9959C4.50403 12.2377 6.8886 11.25 9.375 11.25C11.8614 11.25 14.246 12.2377 16.0041 13.9959C17.7623 15.754 18.75 18.1386 18.75 20.625C18.75 23.1114 17.7623 25.496 16.0041 27.2541C14.246 29.0123 11.8614 30 9.375 30Z" fill="#181818"/>
<path d="M7.605 17.6962C6.4875 17.7843 5.6175 18.6675 5.5125 20.2518H4.6875V20.955H5.51812C5.6325 22.5956 6.51 23.5537 7.78125 23.5537C8.94 23.5537 9.53625 22.8225 9.84375 21.51L9.975 20.955H12.225C12.1444 21.66 11.76 22.1062 11.2275 22.2131V23.4468C12.3056 23.3587 13.1475 22.4343 13.2394 20.955H14.0625V20.2518H13.2188C13.0819 18.8512 12.24 17.8987 11.0475 17.8987C9.99375 17.8987 9.3225 18.6075 9.04875 19.7868L8.93438 20.2518H6.54938C6.65812 19.5318 7.05562 19.0537 7.605 18.9468V17.6962ZM10.1437 20.2462C10.3031 19.5543 10.6313 19.1793 11.1225 19.1793C11.6738 19.1793 12.0863 19.5843 12.2063 20.2518H10.1437V20.2462ZM8.745 21.0562C8.55 21.8981 8.235 22.2843 7.67813 22.2843C7.0425 22.2843 6.6075 21.8025 6.52688 20.955H8.7675L8.745 21.0562Z" fill="#181818"/>
<path d="M30 1.875C30 1.37772 29.8025 0.900806 29.4508 0.549175C29.0992 0.197544 28.6223 0 28.125 0L13.125 0C12.6277 0 12.1508 0.197544 11.7992 0.549175C11.4475 0.900806 11.25 1.37772 11.25 1.875V9.53063C11.895 9.63938 12.5212 9.8025 13.125 10.0144V5.625C14.1196 5.625 15.0734 5.22991 15.7767 4.52665C16.4799 3.82339 16.875 2.86956 16.875 1.875L24.375 1.875C24.375 2.86956 24.7701 3.82339 25.4733 4.52665C26.1766 5.22991 27.1304 5.625 28.125 5.625V24.375C27.1304 24.375 26.1766 24.7701 25.4733 25.4734C24.7701 26.1766 24.375 27.1304 24.375 28.125H17.76C17.1225 28.8375 16.395 29.4694 15.5962 30H28.125C28.6223 30 29.0992 29.8025 29.4508 29.4508C29.8025 29.0992 30 28.6223 30 28.125V1.875Z" fill="#181818"/>
<path d="M20.4694 18.7463L20.625 18.75C21.2708 18.7496 21.9055 18.5825 22.4677 18.2648C23.0299 17.9471 23.5006 17.4896 23.8341 16.9366C24.1675 16.3836 24.3526 15.7538 24.3712 15.1083C24.3899 14.4628 24.2415 13.8235 23.9406 13.2521C23.6396 12.6808 23.1961 12.1969 22.6532 11.8472C22.1103 11.4976 21.4863 11.2941 20.8416 11.2564C20.197 11.2187 19.5535 11.3481 18.9735 11.6322C18.3936 11.9162 17.8968 12.3451 17.5313 12.8775C19.0739 14.497 20.0971 16.5408 20.4694 18.7463Z" fill="#181818"/>
</g>
<defs>
<clipPath id="clip0_65_292">
<rect width="30" height="30" fill="white" transform="matrix(0 1 -1 0 30 0)"/>
</clipPath>
</defs>
</svg>
