<svg width="30" height="30" viewBox="0 0 30 30" fill="none" xmlns="http://www.w3.org/2000/svg">
<path d="M22.5 0C23.4946 0 24.4484 0.395088 25.1517 1.09835C25.8549 1.80161 26.25 2.75544 26.25 3.75V26.25C26.25 27.2446 25.8549 28.1984 25.1517 28.9016C24.4484 29.6049 23.4946 30 22.5 30H13.125L13.125 0L22.5 0ZM20.625 21.5625C20.625 21.3139 20.5262 21.0754 20.3504 20.8996C20.1746 20.7238 19.9361 20.625 19.6875 20.625H17.8125C17.5639 20.625 17.3254 20.7238 17.1496 20.8996C16.9738 21.0754 16.875 21.3139 16.875 21.5625V25.3125C16.875 25.5611 16.9738 25.7996 17.1496 25.9754C17.3254 26.1512 17.5639 26.25 17.8125 26.25H19.6875C19.9361 26.25 20.1746 26.1512 20.3504 25.9754C20.5262 25.7996 20.625 25.5611 20.625 25.3125V21.5625ZM9.375 0L7.5 0C6.50544 0 5.55161 0.395088 4.84835 1.09835C4.14509 1.80161 3.75 2.75544 3.75 3.75V26.25C3.75 27.2446 4.14509 28.1984 4.84835 28.9016C5.55161 29.6049 6.50544 30 7.5 30H9.375L9.375 0Z" fill="#181818"/>
</svg>
