<svg width="50" height="50" viewBox="0 0 50 50" fill="none" xmlns="http://www.w3.org/2000/svg">
<circle cx="25" cy="25" r="25" fill="#C4AFF0"/>
<g clip-path="url(#clip0_485_214)">
<path d="M11.875 9.99997L10 11.875L14.125 17.6518C14.2987 17.8951 14.528 18.0933 14.7938 18.23C15.0596 18.3667 15.3542 18.4378 15.6531 18.4375H15.7844C16.0309 18.4373 16.275 18.4857 16.5028 18.58C16.7306 18.6742 16.9376 18.8125 17.1119 18.9868L22.1275 24.0025L17.2206 28.9787C16.3814 28.7317 15.4961 28.6836 14.635 28.8383C13.7739 28.993 12.9607 29.3462 12.2599 29.8699C11.5591 30.3937 10.99 31.0735 10.5978 31.8555C10.2055 32.6375 10.0008 33.5001 10 34.375C10.0011 35.1811 10.1755 35.9776 10.5113 36.7104C10.8472 37.4433 11.3366 38.0954 11.9464 38.6226C12.5563 39.1498 13.2724 39.5397 14.0461 39.766C14.8198 39.9923 15.6331 40.0496 16.431 39.9341C17.2288 39.8186 17.9925 39.5329 18.6702 39.0965C19.348 38.6601 19.9241 38.0831 20.3594 37.4046C20.7947 36.7261 21.0791 35.9619 21.1933 35.1639C21.3075 34.3659 21.2488 33.5527 21.0212 32.7793L25.9975 27.8725L27.8125 29.6875L27.2406 31.4012C27.1307 31.7315 27.115 32.0859 27.1951 32.4247C27.2753 32.7635 27.4481 33.0733 27.6944 33.3193L33.8256 39.4506C33.9993 39.6253 34.2059 39.764 34.4334 39.8586C34.6609 39.9532 34.9049 40.0019 35.1512 40.0019C35.3976 40.0019 35.6416 39.9532 35.8691 39.8586C36.0966 39.764 36.3032 39.6253 36.4769 39.4506L39.4506 36.4768C39.6253 36.3031 39.764 36.0966 39.8586 35.8691C39.9532 35.6416 40.0019 35.3976 40.0019 35.1512C40.0019 34.9048 39.9532 34.6609 39.8586 34.4334C39.764 34.2059 39.6253 33.9993 39.4506 33.8256L33.3194 27.6943C33.0733 27.4481 32.7635 27.2752 32.4247 27.1951C32.086 27.1149 31.7316 27.1307 31.4012 27.2406L29.6875 27.8125L27.8875 26.0125L32.9125 21.0568C33.7461 21.2794 34.6197 21.3075 35.4659 21.139C36.312 20.9705 37.1082 20.61 37.793 20.0851C38.4778 19.5603 39.033 18.8852 39.4156 18.1119C39.7982 17.3386 39.9982 16.4878 40 15.625C40 15.1187 39.9362 14.6331 39.8088 14.1681L35.7963 18.1825L32.5 17.5L31.8175 14.2056L35.8319 10.1912C34.8769 9.93446 33.8712 9.93398 32.916 10.1898C31.9608 10.4457 31.0899 10.9488 30.3912 11.6485C29.6924 12.3482 29.1904 13.2198 28.9359 14.1753C28.6813 15.1309 28.6832 16.1366 28.9412 17.0912L23.9913 22.1125L18.9869 17.1118C18.6352 16.7603 18.4376 16.2835 18.4375 15.7862V15.6531C18.4375 15.3545 18.3663 15.0603 18.2296 14.7948C18.093 14.5293 17.8949 14.3003 17.6519 14.1268L11.875 9.99997ZM29.9613 29.9612C30.0483 29.8739 30.1518 29.8046 30.2657 29.7574C30.3796 29.7101 30.5017 29.6858 30.625 29.6858C30.7483 29.6858 30.8704 29.7101 30.9843 29.7574C31.0982 29.8046 31.2017 29.8739 31.2887 29.9612L36.7525 35.4268C36.9233 35.6037 37.0178 35.8405 37.0156 36.0863C37.0135 36.3321 36.9149 36.5672 36.7411 36.741C36.5673 36.9149 36.3321 37.0135 36.0863 37.0156C35.8405 37.0177 35.6037 36.9232 35.4269 36.7525L29.9613 31.2887C29.8739 31.2016 29.8047 31.0982 29.7574 30.9843C29.7102 30.8704 29.6858 30.7483 29.6858 30.625C29.6858 30.5017 29.7102 30.3795 29.7574 30.2657C29.8047 30.1518 29.8739 30.0483 29.9613 29.9612ZM15.625 30.625L16.5081 31.0787L17.5 31.1275L18.0381 31.9618L18.8725 32.5L18.9212 33.4918L19.375 34.375L18.9212 35.2581L18.8725 36.25L18.0381 36.7881L17.5 37.6225L16.5081 37.6712L15.625 38.125L14.7419 37.6712L13.75 37.6225L13.2119 36.7881L12.3775 36.25L12.3287 35.2581L11.875 34.375L12.3287 33.4918L12.3775 32.5L13.2119 31.9618L13.75 31.1275L14.7419 31.0787L15.625 30.625Z" fill="black"/>
</g>
<defs>
<clipPath id="clip0_485_214">
<rect width="30" height="30" fill="white" transform="translate(10 10)"/>
</clipPath>
</defs>
</svg>
