<svg width="30" height="30" viewBox="0 0 30 30" fill="none" xmlns="http://www.w3.org/2000/svg">
<g clip-path="url(#clip0_4_37)">
<path d="M22.0163 19.3949C23.8319 16.9175 24.6451 13.8459 24.2932 10.7946C23.9413 7.74334 22.4502 4.93745 20.1184 2.93831C17.7866 0.939171 14.7859 -0.105799 11.7167 0.0124631C8.64745 0.130725 5.73607 1.4035 3.56497 3.57615C1.39388 5.74879 0.123191 8.66109 0.00712533 11.7304C-0.108941 14.7997 0.938176 17.7996 2.93899 20.13C4.9398 22.4604 7.74674 23.9495 10.7983 24.2992C13.8498 24.6489 16.9208 23.8335 19.397 22.0162H19.3951C19.4513 22.0912 19.5113 22.1624 19.5788 22.2318L26.7976 29.4506C27.1492 29.8024 27.6261 30.0001 28.1235 30.0003C28.6209 30.0005 29.098 29.8031 29.4498 29.4515C29.8016 29.0999 29.9994 28.623 29.9995 28.1256C29.9997 27.6282 29.8023 27.1511 29.4507 26.7993L22.232 19.5806C22.1649 19.5127 22.0929 19.4519 22.0163 19.3949ZM22.5001 12.1874C22.5001 13.5417 22.2334 14.8827 21.7151 16.1339C21.1969 17.385 20.4372 18.5219 19.4796 19.4795C18.522 20.4371 17.3852 21.1967 16.134 21.715C14.8828 22.2332 13.5419 22.4999 12.1876 22.4999C10.8333 22.4999 9.49234 22.2332 8.24117 21.715C6.99 21.1967 5.85316 20.4371 4.89556 19.4795C3.93795 18.5219 3.17834 17.385 2.66009 16.1339C2.14184 14.8827 1.8751 13.5417 1.8751 12.1874C1.8751 9.4524 2.96159 6.82938 4.89556 4.89541C6.82953 2.96144 9.45255 1.87494 12.1876 1.87494C14.9226 1.87494 17.5457 2.96144 19.4796 4.89541C21.4136 6.82938 22.5001 9.4524 22.5001 12.1874Z" fill="#E5E5E5"/>
</g>
<defs>
<clipPath id="clip0_4_37">
<rect width="30" height="30" fill="white"/>
</clipPath>
</defs>
</svg>
