<svg width="30" height="30" viewBox="0 0 30 30" fill="none" xmlns="http://www.w3.org/2000/svg">
<path d="M22.0163 19.395C23.8319 16.9175 24.6451 13.8459 24.2932 10.7947C23.9413 7.7434 22.4502 4.93752 20.1184 2.93837C17.7866 0.939232 14.7859 -0.105738 11.7167 0.0125242C8.64745 0.130786 5.73607 1.40356 3.56497 3.57621C1.39388 5.74886 0.123191 8.66115 0.00712533 11.7304C-0.108941 14.7997 0.938176 17.7997 2.93899 20.1301C4.9398 22.4605 7.74674 23.9495 10.7983 24.2992C13.8498 24.6489 16.9208 23.8336 19.397 22.0163H19.3951C19.4513 22.0913 19.5113 22.1625 19.5788 22.2319L26.7976 29.4506C27.1492 29.8025 27.6261 30.0002 28.1235 30.0004C28.6209 30.0006 29.098 29.8031 29.4498 29.4516C29.8016 29.1 29.9994 28.6231 29.9995 28.1257C29.9997 27.6283 29.8023 27.1512 29.4507 26.7994L22.232 19.5806C22.1649 19.5128 22.0929 19.452 22.0163 19.395ZM22.5001 12.1875C22.5001 13.5418 22.2334 14.8828 21.7151 16.1339C21.1969 17.3851 20.4372 18.5219 19.4796 19.4795C18.522 20.4371 17.3852 21.1968 16.134 21.715C14.8828 22.2333 13.5419 22.5 12.1876 22.5C10.8333 22.5 9.49234 22.2333 8.24117 21.715C6.99 21.1968 5.85316 20.4371 4.89556 19.4795C3.93795 18.5219 3.17834 17.3851 2.66009 16.1339C2.14184 14.8828 1.8751 13.5418 1.8751 12.1875C1.8751 9.45246 2.96159 6.82944 4.89556 4.89547C6.82953 2.9615 9.45255 1.87501 12.1876 1.87501C14.9226 1.87501 17.5457 2.9615 19.4796 4.89547C21.4136 6.82944 22.5001 9.45246 22.5001 12.1875Z" fill="#525252"/>
</svg>
