<svg width="18" height="20" viewBox="0 0 18 20" fill="none" xmlns="http://www.w3.org/2000/svg">
<path fill-rule="evenodd" clip-rule="evenodd" d="M8.94151 0.00017195C8.60999 0.00210908 8.29283 0.135659 8.05978 0.371446C7.82673 0.607232 7.6969 0.925938 7.69883 1.25745L7.78346 15.7397L2.38719 10.4036C2.27029 10.2881 2.13178 10.1967 1.97957 10.1347C1.82735 10.0727 1.66442 10.0413 1.50006 10.0422C1.3357 10.0432 1.17314 10.0765 1.02167 10.1403C0.870187 10.2041 0.732755 10.2971 0.617217 10.414C0.501678 10.5309 0.410296 10.6694 0.348285 10.8216C0.286275 10.9738 0.254855 11.1368 0.255816 11.3011C0.256776 11.4655 0.290098 11.628 0.353883 11.7795C0.417668 11.931 0.510662 12.0684 0.62756 12.184L8.17125 19.64C8.28805 19.7557 8.42652 19.8473 8.57875 19.9094C8.73098 19.9715 8.89397 20.003 9.05839 20.0021C9.2228 20.0011 9.38541 19.9677 9.5369 19.9038C9.6884 19.8399 9.82579 19.7467 9.94122 19.6297L17.3973 12.086C17.6306 11.8499 17.7606 11.5308 17.7587 11.1988C17.7567 10.8669 17.623 10.5493 17.3869 10.316C17.1508 10.0827 16.8317 9.95266 16.4998 9.9546C16.1679 9.95654 15.8503 10.0903 15.617 10.3263L10.2834 15.7251L10.1988 1.24285C10.1969 0.91133 10.0633 0.594164 9.82752 0.361117C9.59173 0.12807 9.27302 -0.00176517 8.94151 0.00017195Z" fill="#111111"/>
</svg>
