<svg width="30" height="30" viewBox="0 0 30 30" fill="none" xmlns="http://www.w3.org/2000/svg">
<g clip-path="url(#clip0_485_188)">
<path d="M5.56875 2.53125C5.74479 2.32544 5.96332 2.16021 6.20931 2.04692C6.45531 1.93363 6.72292 1.87498 6.99375 1.875H23.0063C23.2771 1.87498 23.5447 1.93363 23.7907 2.04692C24.0367 2.16021 24.2552 2.32544 24.4312 2.53125L29.3231 8.23875C29.7599 8.74844 30 9.39752 30 10.0687V10.5469C30.0001 11.475 29.7102 12.3799 29.1709 13.1352C28.6316 13.8905 27.8698 14.4584 26.9919 14.7595C26.114 15.0607 25.164 15.08 24.2746 14.8149C23.3852 14.5497 22.6009 14.0133 22.0312 13.2806C21.6154 13.8165 21.0823 14.2501 20.4729 14.5482C19.8635 14.8462 19.194 15.0008 18.5156 15C17.8373 15.0008 17.1677 14.8462 16.5583 14.5482C15.949 14.2501 15.4159 13.8165 15 13.2806C14.5841 13.8165 14.051 14.2501 13.4417 14.5482C12.8323 14.8462 12.1627 15.0008 11.4844 15C10.806 15.0008 10.1365 14.8462 9.52709 14.5482C8.91771 14.2501 8.38464 13.8165 7.96875 13.2806C7.39911 14.0133 6.61478 14.5497 5.72538 14.8149C4.83599 15.08 3.88597 15.0607 3.00811 14.7595C2.13025 14.4584 1.36842 13.8905 0.829092 13.1352C0.289766 12.3799 -0.000102372 11.475 2.7121e-08 10.5469V10.0687C2.36391e-05 9.39752 0.240106 8.74844 0.676875 8.23875L5.56875 2.53125ZM8.90625 10.5469C8.90625 11.2306 9.17787 11.8864 9.66137 12.3699C10.1449 12.8534 10.8006 13.125 11.4844 13.125C12.1681 13.125 12.8239 12.8534 13.3074 12.3699C13.7909 11.8864 14.0625 11.2306 14.0625 10.5469C14.0625 10.2982 14.1613 10.0598 14.3371 9.88396C14.5129 9.70815 14.7514 9.60938 15 9.60938C15.2486 9.60938 15.4871 9.70815 15.6629 9.88396C15.8387 10.0598 15.9375 10.2982 15.9375 10.5469C15.9375 11.2306 16.2091 11.8864 16.6926 12.3699C17.1761 12.8534 17.8319 13.125 18.5156 13.125C19.1994 13.125 19.8551 12.8534 20.3386 12.3699C20.8221 11.8864 21.0938 11.2306 21.0938 10.5469C21.0938 10.2982 21.1925 10.0598 21.3683 9.88396C21.5442 9.70815 21.7826 9.60938 22.0312 9.60938C22.2799 9.60938 22.5183 9.70815 22.6942 9.88396C22.87 10.0598 22.9688 10.2982 22.9688 10.5469C22.9688 11.2306 23.2404 11.8864 23.7239 12.3699C24.2074 12.8534 24.8631 13.125 25.5469 13.125C26.2306 13.125 26.8864 12.8534 27.3699 12.3699C27.8534 11.8864 28.125 11.2306 28.125 10.5469V10.0687C28.125 9.8453 28.0452 9.6292 27.9 9.45938L23.0063 3.75H6.99375L2.1 9.45938C1.95478 9.6292 1.87498 9.8453 1.875 10.0687V10.5469C1.875 11.2306 2.14662 11.8864 2.63012 12.3699C3.11361 12.8534 3.76936 13.125 4.45312 13.125C5.13689 13.125 5.79264 12.8534 6.27613 12.3699C6.75963 11.8864 7.03125 11.2306 7.03125 10.5469C7.03125 10.2982 7.13002 10.0598 7.30584 9.88396C7.48165 9.70815 7.72011 9.60938 7.96875 9.60938C8.21739 9.60938 8.45585 9.70815 8.63166 9.88396C8.80748 10.0598 8.90625 10.2982 8.90625 10.5469ZM2.8125 15.9375C3.06114 15.9375 3.2996 16.0363 3.47541 16.2121C3.65123 16.3879 3.75 16.6264 3.75 16.875V28.125H5.625V18.75C5.625 18.2527 5.82254 17.7758 6.17417 17.4242C6.52581 17.0725 7.00272 16.875 7.5 16.875H13.125C13.6223 16.875 14.0992 17.0725 14.4508 17.4242C14.8025 17.7758 15 18.2527 15 18.75V28.125H26.25V16.875C26.25 16.6264 26.3488 16.3879 26.5246 16.2121C26.7004 16.0363 26.9389 15.9375 27.1875 15.9375C27.4361 15.9375 27.6746 16.0363 27.8504 16.2121C28.0262 16.3879 28.125 16.6264 28.125 16.875V28.125H29.0625C29.3111 28.125 29.5496 28.2238 29.7254 28.3996C29.9012 28.5754 30 28.8139 30 29.0625C30 29.3111 29.9012 29.5496 29.7254 29.7254C29.5496 29.9012 29.3111 30 29.0625 30H0.9375C0.68886 30 0.450403 29.9012 0.274587 29.7254C0.0987721 29.5496 2.7121e-08 29.3111 2.7121e-08 29.0625C2.7121e-08 28.8139 0.0987721 28.5754 0.274587 28.3996C0.450403 28.2238 0.68886 28.125 0.9375 28.125H1.875V16.875C1.875 16.6264 1.97377 16.3879 2.14959 16.2121C2.3254 16.0363 2.56386 15.9375 2.8125 15.9375ZM7.5 28.125H13.125V18.75H7.5V28.125ZM16.875 18.75C16.875 18.2527 17.0725 17.7758 17.4242 17.4242C17.7758 17.0725 18.2527 16.875 18.75 16.875H22.5C22.9973 16.875 23.4742 17.0725 23.8258 17.4242C24.1775 17.7758 24.375 18.2527 24.375 18.75V24.375C24.375 24.8723 24.1775 25.3492 23.8258 25.7008C23.4742 26.0525 22.9973 26.25 22.5 26.25H18.75C18.2527 26.25 17.7758 26.0525 17.4242 25.7008C17.0725 25.3492 16.875 24.8723 16.875 24.375V18.75ZM22.5 18.75H18.75V24.375H22.5V18.75Z" fill="#111111"/>
</g>
<defs>
<clipPath id="clip0_485_188">
<rect width="30" height="30" fill="white"/>
</clipPath>
</defs>
</svg>
